<?xml version="1.0" encoding="UTF-8"?>
<svg width="1200pt" height="1200pt" version="1.1" viewBox="0 0 1200 1200" xmlns="http://www.w3.org/2000/svg">
 <path d="m676.8 1137.6 334.8-333.6c43.199-43.199 43.199-111.6 0-154.8-43.199-43.199-111.6-43.199-154.8 0l-147.6 147.6v-657.6c0-60-49.199-109.2-109.2-109.2s-109.2 49.199-109.2 109.2v657.6l-147.6-146.4c-43.199-43.199-111.6-43.199-154.8 0-21.602 21.602-32.398 49.199-32.398 76.801 0 27.602 10.801 56.398 32.398 76.801l333.6 333.6c20.398 20.398 48 32.398 76.801 32.398s57.598-12 78-32.398z" fill="#ff620b"/>
</svg>
