<?xml version="1.0" encoding="UTF-8"?>
<svg width="1200pt" height="1200pt" version="1.1" viewBox="0 0 1200 1200" xmlns="http://www.w3.org/2000/svg">
 <g fill="#ff620a">
  <path d="m243.84 1009.2c-15.734-19.488-26.262-42.652-30.602-67.32-0.96094-6-9.2383-10.68-18.238-9.8398-7.4375 0.0625-13.484 6.0078-13.68 13.441 2 31.297 12.406 61.477 30.121 87.359 23.113 34.422 57.176 60.023 96.668 72.656 39.488 12.637 82.09 11.559 120.89-3.0547 46.777-17.43 84.859-52.5 106.08-97.68 2.75-5.8711 5.1953-11.879 7.3203-18l3.1211-9.3594 2.2812-7.6797c3.1211-10.078 6.4805-19.801 10.32-29.398v-0.003907c3.7656-9.4297 8.1328-18.609 13.078-27.48 5.2812-9.2383 10.801-18.238 16.922-27.121 25.25-36.422 56.684-68.141 92.879-93.719 9.2383-6.4805 18.719-12.84 28.559-18.602l16.32-10.078c5.7617-3.4805 11.281-7.3203 16.68-11.281 67.426-47.551 117.88-115.41 144-193.68 16.816-51.758 22.559-106.48 16.855-160.6-5.707-54.125-22.734-106.44-49.973-153.56-25.508-43.82-59.484-82.125-99.945-112.68-40.465-30.551-86.605-52.742-135.73-65.281-44.242-10.898-90.012-14.227-135.36-9.8398-40.832 4.3945-80.676 15.418-117.96 32.641-32.426 15.008-62.465 34.699-89.16 58.441-21.984 19.754-41.379 42.211-57.723 66.84-1.8008 3.6211-2.0664 7.8125-0.73438 11.633 1.332 3.8164 4.1523 6.9375 7.8164 8.6484 2.8125 2.1562 6.2852 3.2773 9.8281 3.168s6.9375-1.4414 9.6094-3.7695c17.027-20.457 36.266-38.969 57.363-55.199 53.672-40.961 118.26-65.133 185.64-69.48 38.949-2.0703 77.977 2.1875 115.56 12.602 82.633 23.852 152.61 79.176 194.88 154.08 22.062 39.117 35.754 82.391 40.199 127.08l1.5625 16.922c0.32812 5.6758 0.32812 11.363 0 17.039 0.11328 11.383-0.40625 22.758-1.5625 34.082-2.4062 22.598-7.1914 44.883-14.277 66.48-21.668 65.07-63.223 121.7-118.8 161.88-4.5586 3.3594-9 6.6016-13.801 9.6016l-14.762 9.4805c-11.16 6.7188-21.961 14.281-32.52 21.84v-0.003906c-41.742 30.562-77.672 68.359-106.08 111.6-6.9609 10.559-13.32 21.359-19.199 32.281-5.9141 11.25-11.086 22.875-15.48 34.797-4.3203 12-7.9219 23.281-11.039 34.68l-2.2812 8.3984-1.9219 6.6016v0.003907c-1.3398 4.3164-2.9023 8.5625-4.6797 12.719-14.184 32.469-40.305 58.246-72.957 72-30.168 12.574-63.766 14.27-95.043 4.8008-28.008-8.9883-52.727-26.066-71.039-49.082z"/>
  <path d="m404.52 572.64c-2.3828 2.625-4.9922 5.0352-7.8008 7.1992l-4.5586 3.3594-6.8398 4.4414c-18.238 12-36 24-51.602 34.922v-0.003906c-26.457 18.004-51.453 38.066-74.758 60-1.1992 1.1992 1.9219 8.6406 6.8398 16.441 4.9219 7.8008 8.8789 12 10.199 12 30.223-10.668 59.555-23.711 87.719-39 17.398-9 36-18.961 54.84-29.641l7.0781-4.0781 9.1211-5.7617h0.003907c6.168-4.2812 11.914-9.1406 17.16-14.52 15.871-16.352 26.762-36.883 31.395-59.195 4.6328-22.316 2.8164-45.484-5.2383-66.805-10.16-26.172-29.359-47.84-54.117-61.078-20.727-10.918-44.402-14.914-67.562-11.402-9.1406 1.5156-18.027 4.3008-26.398 8.2812 0-1.5586 0-3.1211 0.96094-4.6797 4.793-18.852 12.922-36.691 24-52.68 11.832-18.285 26.586-34.504 43.68-48 36.906-29.16 83.41-43.422 130.32-39.961 48.719 4.1953 92.648 30.996 118.68 72.395 26.027 41.395 31.137 92.602 13.805 138.32-8.125 21.809-20.902 41.586-37.441 57.961-8.1172 7.9531-17.043 15.031-26.641 21.121l-17.641 12c-5.6406 4.3203-12 8.3984-16.922 12.719h0.003906c-39.312 31.918-71.695 71.527-95.16 116.4-17.402 33.156-30.852 68.234-40.082 104.52-1.0781 4.0781 5.2812 9.6016 13.922 12s14.52 1.6797 15.961-1.9219c14.438-31.613 31.164-62.137 50.039-91.32 23.898-36.691 54.273-68.734 89.641-94.559 4.8008-3.3594 9.8398-6.6016 14.762-9.8398l15.719-9.3594c43.996-25.312 77.715-65.262 95.273-112.89s17.844-99.902 0.80469-147.72c-17.039-47.812-50.32-88.129-94.039-113.92-29.262-17.203-62.133-27.352-96-29.637-45.254-2.4766-90.289 7.8242-129.97 29.723s-72.402 54.512-94.434 94.117c-12.781 22.199-21.211 46.637-24.84 72-3.0664 21.98-2.1758 44.332 2.6406 66 4.1328 17.203 10.422 33.812 18.723 49.438 1.8008 3.7188 10.441 3.9609 18.961 0 8.5195-3.9609 12.84-8.2812 12-12h-0.003906c-4.6211-14.484-7.7539-29.398-9.3594-44.52v-5.7617 0.003907c10.535-2.4492 21.402-3.1367 32.16-2.043 13.008 1.4336 25.414 6.2305 36 13.922 11.273 8.3047 19.664 19.926 24 33.238 4.0664 13.719 3.3047 28.418-2.1602 41.641-3.1406 6.7734-7.4922 12.914-12.84 18.121z"/>
  <path d="m763.44 999.72c26.609-6.3867 50.93-20.035 70.25-39.418 19.32-19.383 32.887-43.746 39.188-70.379 4.9727-19.172 4.1367-39.387-2.3984-58.082-5.5859-1.5234-11.395-2.0547-17.16-1.5586-4.9922-0.30469-10 0.10156-14.879 1.1992-5.8789 10.441-12 24.602-19.68 39.238-16.898 31.738-42.945 57.66-74.762 74.402-14.641 8.1602-28.801 13.68-39.238 19.441v-0.003906c-1.2031 5.8398-1.6055 11.812-1.2031 17.762-0.42969 5.1328 0.097656 10.301 1.5625 15.238 18.797 6.4844 39.094 7.2383 58.32 2.1602z"/>
  <path d="m821.52 1136.5c44.859-12.754 85.707-36.77 118.66-69.77 32.953-32.996 56.922-73.875 69.617-118.75 9.5977-32.406 11.328-66.633 5.0391-99.84 0-1.5586-8.0391-2.8789-17.16-2.6406-5.125-0.55469-10.305 0.27344-15 2.4023-7 27.625-16.023 54.699-27 81-29.797 68.676-84.633 123.43-153.36 153.12-26.262 10.906-53.297 19.852-80.879 26.762-2.3633 5.6016-3.2305 11.723-2.5195 17.758 0 8.3984 1.3203 14.879 2.7617 15.121h-0.003906c33.219 6.2227 67.441 4.4531 99.84-5.1602z"/>
 </g>
</svg>
