<?xml version="1.0" encoding="UTF-8"?>
<svg width="1200pt" height="1200pt" version="1.1" viewBox="0 0 1200 1200" xmlns="http://www.w3.org/2000/svg">
 <path d="m737.51 1140c-111.21 0-169.45-87.023-243.23-197.2-9.4805-14.23-19.332-28.922-29.676-44.074-18.539-27.086-40.117-51.336-62.965-77.051-63.145-71.016-134.72-151.55-134.72-300.6 0.011719-284.81 179.21-461.08 345.21-461.08 217.03 0 294.34 138.11 294.34 267.29 0 20.855-16.871 37.715-37.668 37.715s-37.645-16.859-37.645-37.715c0-57.707-21.348-191.94-219.04-191.94-129.79 0-269.88 147.48-269.88 385.73 0 120.39 53.629 180.73 115.73 250.56 23.363 26.293 47.555 53.52 68.773 84.539 10.523 15.336 20.52 30.289 30.168 44.723 72.035 107.62 112.79 163.75 180.6 163.75 98.34 0 120.09-104 120.93-108.47 4.0664-20.316 23.809-33.637 44.27-29.641 20.387 4.0664 33.707 23.867 29.641 44.328-11.602 58.504-67.219 169.13-194.84 169.13zm75.625-463.5c0-10.43-8.4258-18.816-18.816-18.816-20.113 0-59.484-16.848-59.484-55.871 0-17.832 5.832-59.484 59.484-59.484h18.816v-18.816c0-134.5-51.758-291.5-197.59-291.5-42.59 0-81.707 17.316-113.12 49.98-38.555 40.129-83.219 122.04-76.715 284.02 0.40625 10.43 9.1797 17.184 19.57 18.098 10.379-0.45703 18.48-9.1797 18.047-19.609-4.6562-116.07 18.863-207.1 66.266-256.48 24.098-25.043 53.867-38.363 85.945-38.363 112.21 0 155.62 123.54 159.62 236.34-57.133 8.5195-77.977 55.285-77.977 95.809 0 61.055 56.398 93.516 97.129 93.516 10.402 0 18.828-8.4023 18.828-18.816zm-10.562 142.18c1.7656-10.234-5.0898-19.934-15.312-21.707-10.488-1.7773-19.969 5.1133-21.805 15.266-2.1602 12.324-11.605 39.348-25.367 39.348-19.801-0.32422-77.062-82.754-98.566-113.77l-6.9492-10.031c-5.9648-8.5312-17.676-10.559-26.23-4.668-8.5195 5.9766-10.621 17.711-4.6914 26.242l6.9102 9.8984c52.859 76.141 93.047 129.97 129.52 129.97 39.793 0.011719 58.035-44.328 62.496-70.547z" fill="#ff620a"/>
</svg>
