<?xml version="1.0" encoding="UTF-8"?>
<svg width="1200pt" height="1200pt" version="1.1" viewBox="0 0 1200 1200" xmlns="http://www.w3.org/2000/svg">
 <g fill="#ff620a">
  <path d="m604.8 30c-212.4 0-385.2 172.8-385.2 385.2 0 24 19.199 43.199 43.199 43.199s43.199-19.199 43.199-43.199c0-164.4 134.4-298.8 298.8-298.8 178.8 0 290.4 108 290.4 283.2 0 69.602-40.801 126-85.199 183.6-43.199 57.602-87.602 117.6-97.199 195.6-16.801 147.6-73.199 306-180 306-105.6 0-153.6-86.398-153.6-172.8 0-24-19.199-43.199-43.199-43.199s-42 19.199-42 43.199c0 128.4 81.602 258 238.8 258 138 0 237.6-142.8 265.2-381.6 6-55.199 42-103.2 80.398-153.6 48-63.602 102-136.8 102-235.2 0-220.8-151.2-369.6-375.6-369.6z"/>
  <path d="m604.8 279.6c60 0 120 27.602 120 90 0 24 19.199 43.199 43.199 43.199s43.199-19.199 43.199-43.199c0-102-86.398-176.4-206.4-176.4-61.199 0-123.6 30-169.2 79.199-39.602 44.398-60 97.199-54 148.8 3.6016 42 28.801 79.199 55.199 117.6 45.602 68.398 45.602 154.8 20.398 212.4-39.602 88.801 61.199 139.2 123.6 97.199 48-32.398 27.602-146.4-3.6016-229.2-6-19.199-14.398-37.199-24-52.801-1.1992-3.6016-3.6016-7.1992-4.8008-10.801l-1.1992-1.1992c-13.199-22.801-26.398-43.199-39.602-61.199-20.398-30-40.801-58.801-42-79.199-2.3984-26.398 9.6016-56.398 32.398-82.801 30.004-32.402 70.805-51.602 106.8-51.602z"/>
 </g>
</svg>
