<svg version="1.1" xmlns="http://www.w3.org/2000/svg" xmlns:xlink="http://www.w3.org/1999/xlink" x="0px" y="0px" viewBox="0 0 100 100" style="enable-background:new 0 0 100 100;" xml:space="preserve">
	<path d="M89.3,32.7l-24-24c-0.4-0.4-0.9-0.6-1.4-0.6s-1,0.2-1.4,0.6L28.5,42.6l26.9,26.9l33.9-33.9c0.4-0.4,0.6-0.9,0.6-1.4   C89.9,33.6,89.7,33.1,89.3,32.7z M60.3,26.3L41.9,44.7c-0.4,0.4-0.9,0.6-1.4,0.6c-0.5,0-1-0.2-1.4-0.6c-0.8-0.8-0.8-2.1,0-2.8   l18.4-18.4c0.8-0.8,2-0.8,2.8,0C61.1,24.3,61.1,25.5,60.3,26.3z" fill="#726f63"/>
	<path d="M20.1,79.8c0-1.1-0.9-2-2-2h-6c-1.1,0-2,0.9-2,2s0.9,2,2,2h6C19.2,81.8,20.1,80.9,20.1,79.8z" fill="#726f63"/>
	<path d="M22.8,84.3l-4.2,4.2c-0.8,0.8-0.8,2,0,2.8c0.4,0.4,0.9,0.6,1.4,0.6s1-0.2,1.4-0.6l4.2-4.2c0.8-0.8,0.8-2,0-2.8   C24.9,83.5,23.6,83.5,22.8,84.3z" fill="#726f63"/>
	<path d="M83.1,73.8H51l1.5-1.5L25.7,45.4l-9.9,9.9c-2.3,2.3-2.3,6.1,0,8.5l13.5,13.4c0.4,0.4,0.9,0.6,1.4,0.6h52.5c1.1,0,2-0.9,2-2   C85.1,74.7,84.2,73.8,83.1,73.8z" fill="#ff620a" class="tangerine"/>
</svg>