<?xml version="1.0" encoding="UTF-8"?>
<svg width="1200pt" height="1200pt" version="1.1" viewBox="0 0 1200 1200" xmlns="http://www.w3.org/2000/svg">
 <path d="m325.03 313.41v-31.988c0-6.6992 3.5742-12.887 9.375-16.238 5.8008-3.3477 12.949-3.3477 18.75 0 5.8008 3.3516 9.375 9.5391 9.375 16.238v31.988c0 6.6992-3.5742 12.887-9.375 16.238-5.8008 3.3477-12.949 3.3477-18.75 0-5.8008-3.3516-9.375-9.5391-9.375-16.238zm18.75 61.762c-4.9727 0-9.7422 1.9766-13.258 5.4922-3.5156 3.5156-5.4922 8.2852-5.4922 13.258v31.988c0 6.6992 3.5742 12.887 9.375 16.238 5.8008 3.3477 12.949 3.3477 18.75 0 5.8008-3.3516 9.375-9.5391 9.375-16.238v-31.988c0-4.9727-1.9766-9.7422-5.4922-13.258-3.5156-3.5156-8.2852-5.4922-13.258-5.4922zm37.031-2.7734h23.625c6.6992 0 12.887-3.5742 16.238-9.375 3.3477-5.8008 3.3477-12.949 0-18.75-3.3516-5.8008-9.5391-9.375-16.238-9.375h-23.625c-6.6992 0-12.887 3.5742-16.238 9.375-3.3477 5.8008-3.3477 12.949 0 18.75 3.3516 5.8008 9.5391 9.375 16.238 9.375zm-97.688 0h23.625c6.6992 0 12.887-3.5742 16.238-9.375 3.3477-5.8008 3.3477-12.949 0-18.75-3.3516-5.8008-9.5391-9.375-16.238-9.375h-23.625c-6.6992 0-12.887 3.5742-16.238 9.375-3.3477 5.8008-3.3477 12.949 0 18.75 3.3516 5.8008 9.5391 9.375 16.238 9.375zm613.84 565.97h-32.586c-6.6992 0-12.887 3.5742-16.238 9.375-3.3477 5.8008-3.3477 12.949 0 18.75 3.3516 5.8008 9.5391 9.375 16.238 9.375h32.68c6.6992 0 12.891-3.5742 16.238-9.375 3.3516-5.8008 3.3516-12.949 0-18.75-3.3477-5.8008-9.5391-9.375-16.238-9.375zm-91.48 0h-244.65c-6.6992 0-12.891 3.5742-16.238 9.375-3.3516 5.8008-3.3516 12.949 0 18.75 3.3477 5.8008 9.5391 9.375 16.238 9.375h244.65c6.6992 0 12.891-3.5742 16.238-9.375 3.3516-5.8008 3.3516-12.949 0-18.75-3.3477-5.8008-9.5391-9.375-16.238-9.375zm182.64-67.219h-208.74c-6.6992 0-12.891 3.5742-16.238 9.375-3.3516 5.8008-3.3516 12.949 0 18.75 3.3477 5.8008 9.5391 9.375 16.238 9.375h208.74c6.6992 0 12.887-3.5742 16.238-9.375 3.3477-5.8008 3.3477-12.949 0-18.75-3.3516-5.8008-9.5391-9.375-16.238-9.375zm-73.875-368.4-417.94 439.18c-17.383 18.367-41.484 28.875-66.77 29.117h-1.1797c-24.875 0.078125-48.742-9.8125-66.262-27.469l-141.47-141.47c-17.863-17.867-27.758-42.188-27.445-67.449 0.31641-25.262 10.812-49.328 29.113-66.742l439.18-417.94c17.66-16.988 41.293-26.34 65.793-26.035 24.496 0.30859 47.891 10.246 65.121 27.664l120.23 120.21h-0.003906c17.422 17.23 27.359 40.629 27.668 65.133 0.30469 24.5-9.0469 48.137-26.035 65.797zm-347.36 310.61-216.04-216-102.71 97.727h-0.003906c-10.977 10.449-17.273 24.891-17.461 40.047s5.75 29.746 16.469 40.465l141.47 141.47c10.883 10.477 25.375 16.375 40.48 16.48 15.168-0.14844 29.625-6.457 40.051-17.473zm319.22-415.03-120.23-120.21h0.003906c-10.332-10.457-24.371-16.426-39.074-16.609-14.699-0.18359-28.883 5.4336-39.473 15.637l-309.38 294.38 214.78 214.67 294.38-309.38c10.168-10.598 15.758-24.766 15.566-39.449-0.1875-14.684-6.1406-28.707-16.578-39.039z" fill="#ff620a"/>
</svg>
