<?xml version="1.0" encoding="UTF-8"?>
<svg width="1200pt" height="1200pt" version="1.1" viewBox="0 0 1200 1200" xmlns="http://www.w3.org/2000/svg">
 <path d="m375.73 820.71c18.754 18.754 44.188 29.289 70.711 29.289h94.977c26.523 0 51.957-10.539 70.711-29.289l341.42-341.42c18.754-18.754 29.289-44.191 29.289-70.711 0-26.523-10.535-51.957-29.289-70.711l-141.42-141.42c-18.754-18.754-44.188-29.289-70.711-29.289-26.52 0-51.957 10.535-70.711 29.289l-388.91 388.91c-18.75 18.754-29.285 44.188-29.285 70.711 0 26.52 10.535 51.957 29.285 70.711zm330.33-588.91c9.375-9.375 22.094-14.645 35.355-14.645s25.977 5.2695 35.355 14.645l141.42 141.42c9.3789 9.3789 14.645 22.094 14.645 35.355s-5.2656 25.98-14.645 35.355l-176.78 176.78-212.13-212.13zm293.93 743.2c0.003906 6.6328-2.6289 12.992-7.3164 17.684-4.6914 4.6875-11.051 7.3203-17.684 7.3164h-750c-8.9297 0-17.184-4.7656-21.652-12.5-4.4648-7.7344-4.4648-17.266 0-25 4.4688-7.7344 12.723-12.5 21.652-12.5h750c6.6328-0.003906 12.992 2.6289 17.684 7.3164 4.6875 4.6914 7.3203 11.051 7.3164 17.684z" fill="#ff620a"/>
</svg>
