<?xml version="1.0" encoding="UTF-8"?>
<svg width="1200pt" height="1200pt" version="1.1" viewBox="0 0 1200 1200" xmlns="http://www.w3.org/2000/svg">
  <path d="m931.88 459.38-234.38-236.25c-20.625-22.5-60-20.625-80.625 0l-300 300 316.88 316.88 300-300c20.625-22.5 20.625-60-1.875-80.625zm-693.75 142.5c-37.5 39.375-37.5 101.25 0 140.62l174.38 174.38c3.75 3.75 9.375 7.5 15 7.5h112.5c5.625 0 9.375-1.875 13.125-5.625l52.5-52.5-316.88-316.88z" fill="#ff620a"/>
  <path d="m973.12 997.5h-568.12c-11.25 0-18.75-7.5-18.75-18.75s7.5-18.75 18.75-18.75h568.12c11.25 0 18.75 7.5 18.75 18.75s-9.375 18.75-18.75 18.75z" fill="#ff620a"/>
  <path d="m313.12 900h-80.625c-11.25 0-18.75-7.5-18.75-18.75s7.5-18.75 18.75-18.75h80.625c11.25 0 18.75 7.5 18.75 18.75s-9.375 18.75-18.75 18.75z" fill="#ff620a"/>
  <path d="m271.88 993.75c-5.625 0-13.125-3.75-16.875-9.375-5.625-9.375-1.875-20.625 7.5-26.25l67.5-37.5c9.375-5.625 20.625-1.875 26.25 7.5s1.875 20.625-7.5 26.25l-67.5 37.5c-1.875 1.875-5.625 1.875-9.375 1.875z" fill="#ff620a"/>
</svg>
