<?xml version="1.0" encoding="UTF-8"?>
<svg width="1200pt" height="1200pt" version="1.1" viewBox="0 0 1200 1200" xmlns="http://www.w3.org/2000/svg">
 <g fill="#ff620c">
  <path d="m567.39 1003.4-390.83-390.83 424.26-424.26 390.83 390.83z"/>
  <path d="m1112.7 303.64-236.36-236.36c-41.816-41.816-112.73-41.816-154.55 0l-96.363 96.363 392.73 389.09 96.363-96.363c41.816-41.816 41.816-110.91-1.8203-152.73z"/>
  <path d="m150.91 638.18-96.363 96.363c-41.816 41.816-41.816 112.73 0 154.55l236.36 236.36c41.816 41.816 112.73 41.816 154.55 0l96.363-96.363z"/>
  <path d="m963.64 1129.1h-470.91l-21.816 21.816c-5.4531 5.4531-10.91 10.91-16.363 14.547h509.09c9.0898 0 18.184-7.2734 18.184-18.184-0.003906-9.0859-7.2734-18.18-18.184-18.18z"/>
  <path d="m1052.7 1134.5c-7.2734 7.2734-7.2734 18.184 0 25.453 7.2734 7.2734 18.184 7.2734 25.453 0 7.2734-7.2734 7.2734-18.184 0-25.453-7.2695-7.2734-18.18-7.2734-25.453 0z"/>
  <path d="m1172.7 1134.5c-7.2734-7.2734-18.184-7.2734-25.453 0-7.2734 7.2734-7.2734 18.184 0 25.453 3.6367 3.6367 7.2734 5.4531 12.727 5.4531s9.0898-1.8164 12.727-5.4531c7.2734-7.2734 7.2734-18.184 0-25.453z"/>
 </g>
</svg>
