<?xml version="1.0" encoding="UTF-8"?>
<svg width="1200pt" height="1200pt" version="1.1" viewBox="0 0 1200 1200" xmlns="http://www.w3.org/2000/svg">
 <path d="m1137.8 362.41c-5.3867-14.746-21.758-23.293-37.5-31.645-14.113-7.4883-210.96-83.375-210.96-83.375s-45-19.094-66.254-17.508c-22.031 1.6562-42.91 4.0664-90.91 30.996-112.15 62.797-327.37 185.1-516.14 302.38-67.465 41.949-134.66 158.07-134.66 158.07s-22.031 30.863-21.324 55.199c2.5781 19.691 10.094 25.402 25.945 34.031 68.746 37.332 231.85 126.05 246.35 134.72 40.367 24.203 76.738 27.695 99.91 23.293 32.605-6.2266 111.36-63.539 116.57-67.043 200.65-135.23 373.34-260.07 456.56-321.07 33.91-24.84 39.301-30.156 50.113-42.574 8.9023-10.223 14.762-18.109 28.895-43.859 15.023-27.371 32.531-59.34 40.992-75.203 12.426-19.66 18.125-40.887 12.426-56.418zm-66.086 52.273-486.09 317.32s-5.4609 3.5391-8.0625 6.2031c-2.7227 2.7734-6.2539 7.8594-6.2539 7.8594l-119.59 178.5c-2.3984 3.5625-6.3242 5.5078-10.344 5.5078-2.375 0-4.7656-0.69531-6.8867-2.1133-5.7109-3.793-7.2344-11.531-3.4062-17.258l113.94-169.5s3.3008-4.4297 1.7148-6.9844c-0.64844-1.4023-3.4922-2.4727-3.4922-2.4727l-296.18-123.96c-6.3242-2.6406-9.3125-9.9375-6.6484-16.262 2.6523-6.3125 9.9375-9.3477 16.246-6.6484l286.22 119.77s13.5 5.6758 21.047 5.4492c10.691-0.3125 25.43-11.23 25.43-11.23l468.77-305c5.7461-3.7578 13.402-2.1484 17.207 3.6133 3.7344 5.7539 2.0898 13.445-3.6211 17.215z" fill="#ff620c"/>
</svg>
