<?xml version="1.0" encoding="UTF-8"?>
<svg width="1200pt" height="1200pt" version="1.1" viewBox="0 0 1200 1200" xmlns="http://www.w3.org/2000/svg">
 <path d="m343.78 313.46v-31.984c0-6.6992 3.5742-12.891 9.375-16.238 5.8008-3.3516 12.949-3.3516 18.75 0 5.8008 3.3477 9.375 9.5391 9.375 16.238v31.988-0.003906c0 6.6992-3.5742 12.891-9.375 16.238-5.8008 3.3516-12.949 3.3516-18.75 0-5.8008-3.3477-9.375-9.5391-9.375-16.238zm37.5 112.5v-31.984c0-6.6992-3.5742-12.891-9.375-16.238-5.8008-3.3516-12.949-3.3516-18.75 0-5.8008 3.3477-9.375 9.5391-9.375 16.238v31.988-0.003906c0 6.6992 3.5742 12.891 9.375 16.238 5.8008 3.3516 12.949 3.3516 18.75 0 5.8008-3.3477 9.375-9.5391 9.375-16.238zm18.281-53.492h23.625c6.6992 0 12.887-3.5742 16.238-9.375 3.3477-5.8008 3.3477-12.949 0-18.75-3.3516-5.8008-9.5391-9.375-16.238-9.375h-23.625c-6.6992 0-12.887 3.5742-16.238 9.375-3.3477 5.8008-3.3477 12.949 0 18.75 3.3516 5.8008 9.5391 9.375 16.238 9.375zm-97.707 0h23.645c6.6992 0 12.887-3.5742 16.238-9.375 3.3477-5.8008 3.3477-12.949 0-18.75-3.3516-5.8008-9.5391-9.375-16.238-9.375h-23.625c-6.6992 0-12.887 3.5742-16.238 9.375-3.3477 5.8008-3.3477 12.949 0 18.75 3.3516 5.8008 9.5391 9.375 16.238 9.375zm576.36 528.45h-32.586c-6.6992 0-12.887 3.5742-16.238 9.375-3.3477 5.8008-3.3477 12.949 0 18.75 3.3516 5.8008 9.5391 9.375 16.238 9.375h32.68c6.6992 0 12.891-3.5742 16.238-9.375 3.3516-5.8008 3.3516-12.949 0-18.75-3.3477-5.8008-9.5391-9.375-16.238-9.375zm-91.48 0h-244.65c-6.6992 0-12.891 3.5742-16.238 9.375-3.3516 5.8008-3.3516 12.949 0 18.75 3.3477 5.8008 9.5391 9.375 16.238 9.375h244.65c6.6992 0 12.891-3.5742 16.238-9.375 3.3516-5.8008 3.3516-12.949 0-18.75-3.3477-5.8008-9.5391-9.375-16.238-9.375zm182.64-67.219h-208.74c-6.6992 0-12.891 3.5742-16.238 9.375-3.3516 5.8008-3.3516 12.949 0 18.75 3.3477 5.8008 9.5391 9.375 16.238 9.375h208.74c6.6992 0 12.887-3.5742 16.238-9.375 3.3477-5.8008 3.3477-12.949 0-18.75-3.3516-5.8008-9.5391-9.375-16.238-9.375zm-637.24-236.25-102.71 97.742v0.003906c-10.98 10.449-17.273 24.891-17.461 40.047s5.75 29.746 16.465 40.465l141.47 141.47c10.887 10.473 25.379 16.367 40.484 16.461 15.168-0.13281 29.625-6.4336 40.047-17.457l97.742-102.71zm241.88 188.85 294.38-309.38c10.199-10.59 15.816-24.77 15.637-39.469-0.17578-14.699-6.1406-28.738-16.594-39.074l-120.23-120.23h0.003906c-10.34-10.449-24.379-16.406-39.078-16.586-14.695-0.17969-28.875 5.4375-39.465 15.629l-309.38 294.38z" fill="#ff620a"/>
</svg>
