<?xml version="1.0" encoding="UTF-8"?>
<svg width="1200pt" height="1200pt" version="1.1" viewBox="0 0 1200 1200" xmlns="http://www.w3.org/2000/svg">
 <path d="m1137.6 523.2-333.6-334.8c-43.199-43.199-111.6-43.199-154.8 0-43.199 43.199-43.199 111.6 0 154.8l147.6 147.6h-657.6c-60 0-109.2 49.199-109.2 109.2s49.199 109.2 109.2 109.2h657.6l-146.4 147.6c-43.199 43.199-43.199 111.6 0 154.8 21.602 21.602 49.199 32.398 76.801 32.398 27.602 0 56.398-10.801 76.801-32.398l333.6-333.6c20.398-20.398 32.398-48 32.398-76.801s-12-57.598-32.398-78z" fill="#fa0"/>
</svg>
