<?xml version="1.0" encoding="UTF-8"?>
<svg width="1200pt" height="1200pt" version="1.1" viewBox="0 0 1200 1200" xmlns="http://www.w3.org/2000/svg">
 <g fill="#ff620a">
  <path d="m745.99 1054c0 80.629-65.363 145.99-145.99 145.99s-145.99-65.363-145.99-145.99c0-80.633 65.363-146 145.99-146s145.99 65.363 145.99 146" fill-rule="evenodd"/>
  <path d="m197.62 338.28 14.242-46.289c46.289-178.04 202.97-291.99 384.57-291.99 217.21 0 405.93 170.92 405.93 391.69 0 178.04-121.07 327.6-288.43 373.89v78.34h-231.45v-138.87c0-78.34 56.973-145.99 135.31-153.12 85.461-10.684 156.68-74.777 156.68-160.24 0-96.141-85.461-160.24-178.04-160.24-78.34 0-142.43 42.73-163.8 121.07l-14.242 46.289-220.77-60.535z"/>
 </g>
</svg>
